<svg width="604" height="108" viewBox="0 0 604 108" fill="none" xmlns="http://www.w3.org/2000/svg">
<rect width="604" height="108" fill="#F7F7F7"/>
<path d="M92.46 39.122H98.256V71H92.46V56.878H78.614V71H72.818V39.122H78.614V51.864H92.46V39.122ZM105.881 71V39.122H126.35V44.044H111.677V51.91H124.741V56.74H111.677V66.078H127.455V71H105.881ZM154.667 71C154.238 69.7427 153.793 68.5007 153.333 67.274C152.873 66.0473 152.429 64.79 151.999 63.502H138.567C138.138 64.79 137.693 66.0627 137.233 67.32C136.804 68.5467 136.375 69.7733 135.945 71H129.919C131.115 67.596 132.25 64.4527 133.323 61.57C134.397 58.6873 135.439 55.958 136.451 53.382C137.494 50.806 138.521 48.3527 139.533 46.022C140.545 43.6913 141.588 41.3913 142.661 39.122H148.135C149.209 41.3913 150.251 43.6913 151.263 46.022C152.275 48.3527 153.287 50.806 154.299 53.382C155.342 55.958 156.4 58.6873 157.473 61.57C158.577 64.4527 159.727 67.596 160.923 71H154.667ZM145.283 45.286C144.578 46.9113 143.765 48.8893 142.845 51.22C141.956 53.5507 141.021 56.0807 140.039 58.81H150.527C149.546 56.0807 148.595 53.5353 147.675 51.174C146.755 48.8127 145.958 46.85 145.283 45.286ZM170.749 66.216C171.086 66.2467 171.531 66.2773 172.083 66.308C172.635 66.308 173.386 66.308 174.337 66.308C178.231 66.308 181.129 65.3267 183.031 63.364C184.963 61.3707 185.929 58.5953 185.929 55.038C185.929 51.4193 184.993 48.644 183.123 46.712C181.252 44.78 178.354 43.814 174.429 43.814C172.711 43.814 171.485 43.86 170.749 43.952V66.216ZM192.001 55.038C192.001 57.798 191.571 60.2053 190.713 62.26C189.854 64.284 188.627 65.986 187.033 67.366C185.469 68.7153 183.567 69.7273 181.329 70.402C179.121 71.046 176.667 71.368 173.969 71.368C172.681 71.368 171.224 71.3067 169.599 71.184C167.973 71.092 166.425 70.8773 164.953 70.54V39.582C166.425 39.2447 167.989 39.03 169.645 38.938C171.301 38.846 172.773 38.8 174.061 38.8C176.729 38.8 179.167 39.122 181.375 39.766C183.583 40.3793 185.469 41.3607 187.033 42.71C188.627 44.0287 189.854 45.7153 190.713 47.77C191.571 49.794 192.001 52.2167 192.001 55.038ZM207.346 38.8C211.976 38.8 215.518 39.6433 217.972 41.33C220.456 43.0167 221.698 45.654 221.698 49.242C221.698 51.1127 221.36 52.7227 220.686 54.072C220.042 55.3907 219.091 56.4793 217.834 57.338C216.576 58.166 215.043 58.7793 213.234 59.178C211.424 59.5767 209.354 59.776 207.024 59.776H204.126V71H198.33V39.582C199.679 39.2753 201.166 39.076 202.792 38.984C204.448 38.8613 205.966 38.8 207.346 38.8ZM207.76 43.814C206.288 43.814 205.076 43.86 204.126 43.952V54.808H206.932C209.722 54.808 211.869 54.4247 213.372 53.658C214.874 52.8607 215.626 51.3733 215.626 49.196C215.626 48.1533 215.426 47.2793 215.028 46.574C214.629 45.8687 214.077 45.3167 213.372 44.918C212.666 44.5193 211.823 44.2433 210.842 44.09C209.891 43.906 208.864 43.814 207.76 43.814ZM246.632 39.122H252.428V71H246.632V56.878H232.786V71H226.99V39.122H232.786V51.864H246.632V39.122ZM264.79 55.038C264.79 56.786 265.005 58.3807 265.434 59.822C265.864 61.2327 266.477 62.444 267.274 63.456C268.102 64.4373 269.099 65.204 270.264 65.756C271.43 66.308 272.748 66.584 274.22 66.584C275.662 66.584 276.965 66.308 278.13 65.756C279.296 65.204 280.277 64.4373 281.074 63.456C281.902 62.444 282.531 61.2327 282.96 59.822C283.39 58.3807 283.604 56.786 283.604 55.038C283.604 53.29 283.39 51.7107 282.96 50.3C282.531 48.8587 281.902 47.6473 281.074 46.666C280.277 45.654 279.296 44.872 278.13 44.32C276.965 43.768 275.662 43.492 274.22 43.492C272.748 43.492 271.43 43.768 270.264 44.32C269.099 44.872 268.102 45.654 267.274 46.666C266.477 47.678 265.864 48.8893 265.434 50.3C265.005 51.7107 264.79 53.29 264.79 55.038ZM289.676 55.038C289.676 57.7673 289.262 60.1747 288.434 62.26C287.637 64.3453 286.533 66.0933 285.122 67.504C283.742 68.884 282.117 69.9267 280.246 70.632C278.376 71.3373 276.382 71.69 274.266 71.69C272.15 71.69 270.142 71.3373 268.24 70.632C266.37 69.9267 264.729 68.884 263.318 67.504C261.938 66.0933 260.834 64.3453 260.006 62.26C259.178 60.1747 258.764 57.7673 258.764 55.038C258.764 52.3087 259.178 49.9167 260.006 47.862C260.834 45.7767 261.954 44.0287 263.364 42.618C264.806 41.2073 266.462 40.1493 268.332 39.444C270.203 38.7387 272.181 38.386 274.266 38.386C276.352 38.386 278.33 38.7387 280.2 39.444C282.071 40.1493 283.696 41.2073 285.076 42.618C286.487 44.0287 287.606 45.7767 288.434 47.862C289.262 49.9167 289.676 52.3087 289.676 55.038ZM317.517 71C316.474 69.252 315.309 67.3813 314.021 65.388C312.733 63.364 311.399 61.34 310.019 59.316C308.639 57.2613 307.228 55.2833 305.787 53.382C304.376 51.45 303.027 49.7173 301.739 48.184V71H296.035V39.122H300.773C301.999 40.41 303.318 41.9433 304.729 43.722C306.139 45.47 307.55 47.2947 308.961 49.196C310.402 51.0973 311.782 53.014 313.101 54.946C314.45 56.8473 315.646 58.626 316.689 60.282V39.122H322.439V71H317.517ZM330.086 71V39.122H350.556V44.044H335.882V51.91H348.946V56.74H335.882V66.078H351.66V71H330.086ZM375.503 66.676C377.588 66.676 379.106 66.3233 380.057 65.618C381.008 64.9127 381.483 63.916 381.483 62.628C381.483 61.8613 381.314 61.202 380.977 60.65C380.67 60.098 380.21 59.6073 379.597 59.178C379.014 58.718 378.294 58.304 377.435 57.936C376.576 57.5373 375.595 57.154 374.491 56.786C373.387 56.3873 372.314 55.958 371.271 55.498C370.259 55.0073 369.354 54.4093 368.557 53.704C367.79 52.9987 367.162 52.1553 366.671 51.174C366.211 50.1927 365.981 49.012 365.981 47.632C365.981 44.7493 366.978 42.4953 368.971 40.87C370.964 39.214 373.678 38.386 377.113 38.386C379.106 38.386 380.87 38.616 382.403 39.076C383.967 39.5053 385.194 39.9807 386.083 40.502L384.289 45.194C383.246 44.6113 382.096 44.1667 380.839 43.86C379.612 43.5533 378.34 43.4 377.021 43.4C375.457 43.4 374.23 43.722 373.341 44.366C372.482 45.01 372.053 45.9147 372.053 47.08C372.053 47.7853 372.191 48.3987 372.467 48.92C372.774 49.4107 373.188 49.8553 373.709 50.254C374.261 50.6527 374.89 51.0207 375.595 51.358C376.331 51.6953 377.128 52.0173 377.987 52.324C379.49 52.876 380.824 53.4433 381.989 54.026C383.185 54.578 384.182 55.2527 384.979 56.05C385.807 56.8167 386.436 57.7367 386.865 58.81C387.294 59.8527 387.509 61.1253 387.509 62.628C387.509 65.5107 386.482 67.7493 384.427 69.344C382.403 70.908 379.428 71.69 375.503 71.69C374.184 71.69 372.973 71.598 371.869 71.414C370.796 71.2607 369.83 71.0613 368.971 70.816C368.143 70.5707 367.422 70.3253 366.809 70.08C366.196 69.804 365.705 69.5587 365.337 69.344L367.039 64.606C367.867 65.066 368.986 65.526 370.397 65.986C371.808 66.446 373.51 66.676 375.503 66.676ZM414.835 39.122V44.136H405.037V71H399.195V44.136H389.397V39.122H414.835ZM422.87 55.038C422.87 56.786 423.085 58.3807 423.514 59.822C423.944 61.2327 424.557 62.444 425.354 63.456C426.182 64.4373 427.179 65.204 428.344 65.756C429.51 66.308 430.828 66.584 432.3 66.584C433.742 66.584 435.045 66.308 436.21 65.756C437.376 65.204 438.357 64.4373 439.154 63.456C439.982 62.444 440.611 61.2327 441.04 59.822C441.47 58.3807 441.684 56.786 441.684 55.038C441.684 53.29 441.47 51.7107 441.04 50.3C440.611 48.8587 439.982 47.6473 439.154 46.666C438.357 45.654 437.376 44.872 436.21 44.32C435.045 43.768 433.742 43.492 432.3 43.492C430.828 43.492 429.51 43.768 428.344 44.32C427.179 44.872 426.182 45.654 425.354 46.666C424.557 47.678 423.944 48.8893 423.514 50.3C423.085 51.7107 422.87 53.29 422.87 55.038ZM447.756 55.038C447.756 57.7673 447.342 60.1747 446.514 62.26C445.717 64.3453 444.613 66.0933 443.202 67.504C441.822 68.884 440.197 69.9267 438.326 70.632C436.456 71.3373 434.462 71.69 432.346 71.69C430.23 71.69 428.222 71.3373 426.32 70.632C424.45 69.9267 422.809 68.884 421.398 67.504C420.018 66.0933 418.914 64.3453 418.086 62.26C417.258 60.1747 416.844 57.7673 416.844 55.038C416.844 52.3087 417.258 49.9167 418.086 47.862C418.914 45.7767 420.034 44.0287 421.444 42.618C422.886 41.2073 424.542 40.1493 426.412 39.444C428.283 38.7387 430.261 38.386 432.346 38.386C434.432 38.386 436.41 38.7387 438.28 39.444C440.151 40.1493 441.776 41.2073 443.156 42.618C444.567 44.0287 445.686 45.7767 446.514 47.862C447.342 49.9167 447.756 52.3087 447.756 55.038ZM462.901 38.8C467.501 38.8 471.012 39.6433 473.435 41.33C475.888 43.0167 477.115 45.5927 477.115 49.058C477.115 53.382 474.984 56.3107 470.721 57.844C471.304 58.5493 471.963 59.408 472.699 60.42C473.435 61.432 474.186 62.536 474.953 63.732C475.72 64.8973 476.456 66.1087 477.161 67.366C477.866 68.5927 478.495 69.804 479.047 71H472.561C471.978 69.896 471.35 68.792 470.675 67.688C470 66.5533 469.31 65.4647 468.605 64.422C467.93 63.3487 467.256 62.352 466.581 61.432C465.906 60.4813 465.278 59.638 464.695 58.902C464.266 58.9327 463.898 58.948 463.591 58.948C463.284 58.948 462.993 58.948 462.717 58.948H459.911V71H454.115V39.582C455.526 39.2753 457.028 39.076 458.623 38.984C460.218 38.8613 461.644 38.8 462.901 38.8ZM463.315 43.814C462.088 43.814 460.954 43.86 459.911 43.952V54.256H462.441C463.852 54.256 465.094 54.1793 466.167 54.026C467.24 53.8727 468.13 53.5967 468.835 53.198C469.571 52.7993 470.123 52.2627 470.491 51.588C470.859 50.9133 471.043 50.0547 471.043 49.012C471.043 48.0307 470.859 47.2027 470.491 46.528C470.123 45.8533 469.586 45.3167 468.881 44.918C468.206 44.5193 467.394 44.2433 466.443 44.09C465.492 43.906 464.45 43.814 463.315 43.814ZM483.539 71V39.122H504.009V44.044H489.335V51.91H502.399V56.74H489.335V66.078H505.113V71H483.539Z" fill="black"/>
</svg>
